<svg width="246" height="387" viewBox="0 0 246 387" fill="none" xmlns="http://www.w3.org/2000/svg">
<path fill-rule="evenodd" clip-rule="evenodd" d="M166.651 245.765C160.885 251.925 166.643 264.164 145.683 275.422C101.833 298.86 94.2623 340.678 57.282 355.338C56.8483 355.441 107.804 349.839 138.47 314.264C151.26 299.335 159.183 278.426 162.855 266.656C164.096 262.476 167.667 244.534 166.651 245.765Z" fill="#3AC24A"/>
<path fill-rule="evenodd" clip-rule="evenodd" d="M182.38 238.429C175.008 234.346 164.634 243.029 148.499 225.334C114.935 188.47 72.7615 191.702 49.3595 159.232C49.1097 158.882 67.3267 206.916 109.321 227.867C126.931 236.648 148.83 239.185 161.25 239.799C165.468 240.024 183.7 239.098 182.38 238.429Z" fill="#3AC24A"/>
<path fill-rule="evenodd" clip-rule="evenodd" d="M181.797 194.167C162.331 142.506 104.565 134.898 81.2854 102.555C81.1361 102.296 90.9175 137.716 128.687 162.797C154.115 179.605 146.395 203.264 172.912 211.777C181.724 214.68 195.969 209.39 214.136 210.233C224.428 210.745 229.248 209.533 231.723 209.384C240.473 209.01 186.753 207.067 181.797 194.167Z" fill="#3AC24A"/>
<path fill-rule="evenodd" clip-rule="evenodd" d="M289.233 249.774C244.703 282.309 252.805 340.161 227.765 371.387C227.655 371.45 259.013 352.583 273.08 309.471C282.553 280.297 307.331 281.758 308.561 253.751C309.075 244.454 300.153 232.023 296.148 214.269C294.008 204.038 291.46 199.779 290.666 197.372C287.963 188.902 300.242 241.514 289.233 249.774Z" fill="#3AC24A"/>
<path fill-rule="evenodd" clip-rule="evenodd" d="M278.333 201.702C272.79 192.751 259.967 196.574 251.423 166.816C233.273 104.255 192.458 83.2135 182.5 31.7273C182.397 31.2926 181.745 97.7291 213.452 146.696C226.744 167.324 246.527 183.053 257.852 190.927C261.785 193.74 279.313 203.408 278.333 201.702Z" fill="#3AC24A"/>
<path fill-rule="evenodd" clip-rule="evenodd" d="M254.515 203.195C248.749 209.356 254.506 221.594 233.547 232.852C189.697 256.29 128.373 347.064 153.159 378.089C153.521 378.373 157.324 322.126 226.313 271.657C242.18 259.939 247.111 235.968 250.698 224.048C251.849 219.97 255.568 201.942 254.515 203.195Z" fill="#3AC24A"/>
<path fill-rule="evenodd" clip-rule="evenodd" d="M133.909 261.628C125.667 260.571 118.313 265.426 96.9615 255.106C51.9171 233.648 34.0284 271.656 0.316569 250.206C0.0408305 250.069 15.6461 275.834 62.2568 279.375C81.9979 280.987 103.293 275.022 114.893 270.87C118.881 269.498 135.502 261.743 133.909 261.628Z" fill="#3AC24A"/>
<path fill-rule="evenodd" clip-rule="evenodd" d="M369.151 198.014C359.627 189.245 347.466 195.848 325.801 164.943C280.268 100.157 269.118 142.518 237.269 26.9312C237.167 26.4958 222.489 102.545 276.981 150.024C299.81 170.02 327.487 183.546 342.922 190.175C348.298 192.498 370.953 199.69 369.151 198.014Z" fill="#3AC24A"/>
<path fill-rule="evenodd" clip-rule="evenodd" d="M544.953 349.032C519.182 338.307 482.407 145.127 240.757 203.852C192.727 215.571 151.064 271.76 101.501 262.315C103.367 272.408 130.304 267.178 162.423 251.43C186.104 239.682 211.11 219.701 239.564 209.141C272.413 196.976 308.047 199.759 329.143 199.101C350.341 198.534 370.764 202.617 388.034 207.639C420.667 217.106 425.24 218.807 464.064 250.002C496.591 276.244 538.782 357.058 538.782 357.058C546.045 345.877 547.174 350.068 544.953 349.032Z" fill="#14771E"/>
</svg>
