<svg width="21" height="18" viewBox="0 0 21 18" fill="none" xmlns="http://www.w3.org/2000/svg">
<path d="M20.3622 9.82018C20.4747 9.77201 20.5705 9.6919 20.6379 9.58977C20.7053 9.48765 20.7412 9.36799 20.7412 9.24565C20.7412 9.12331 20.7053 9.00366 20.6379 8.90153C20.5705 8.79941 20.4747 8.7193 20.3622 8.67113L2.36106 0.956595L2.36017 0.955711L1.80156 0.715294C1.69571 0.669809 1.57934 0.654468 1.46532 0.670964C1.35129 0.687461 1.24405 0.735155 1.15543 0.808777C1.06681 0.882398 1.00026 0.979083 0.963138 1.08815C0.926018 1.19722 0.919767 1.31442 0.945076 1.42682L1.07766 2.01902L1.07677 2.02167L2.68279 9.24566L1.07677 16.4696L1.07677 16.4732L0.944191 17.0654C0.919288 17.1776 0.925844 17.2946 0.963139 17.4034C1.00043 17.5122 1.06702 17.6086 1.15557 17.6819C1.24411 17.7553 1.35119 17.8029 1.46501 17.8193C1.57883 17.8357 1.69498 17.8205 1.80067 17.7751L20.3622 9.82018ZM17.0715 9.87056L3.82388 9.87056L3.9326 9.38177C3.9526 9.29213 3.9526 9.19918 3.9326 9.10954L3.82388 8.62075L17.0715 8.62075L18.5291 9.24565L17.0724 9.87144L17.0715 9.87056Z" fill="#53B175"/>
</svg>
